<svg width="19" height="8" viewBox="0 0 19 8" fill="none" xmlns="http://www.w3.org/2000/svg">
<path d="M1 3.5C0.723858 3.5 0.5 3.72386 0.5 4C0.5 4.27614 0.723858 4.5 1 4.5L1 3.5ZM17.9062 4.35355C18.1014 4.15829 18.1014 3.84171 17.9062 3.64645L14.7242 0.464466C14.5289 0.269204 14.2124 0.269204 14.0171 0.464466C13.8218 0.659728 13.8218 0.976311 14.0171 1.17157L16.8455 4L14.0171 6.82843C13.8218 7.02369 13.8218 7.34027 14.0171 7.53553C14.2124 7.7308 14.5289 7.7308 14.7242 7.53553L17.9062 4.35355ZM1 4.5L17.5526 4.5V3.5L1 3.5L1 4.5Z" fill="#55697B"/>
</svg>
